<svg xmlns="http://www.w3.org/2000/svg" viewBox="0 0 640 420"><rect width="640" height="420" rx="38" fill="#eef7ef"/><path d="M176 218c0-74 65-124 145-124 72 0 126 37 144 91h42c18 0 33 15 33 33v46c0 18-15 33-33 33h-22c-20 50-70 84-139 84H232c-31 0-56-25-56-56z" fill="#ff786d" stroke="#17356f" stroke-width="10"/><circle cx="417" cy="174" r="8" fill="#17356f"/><path d="M229 109c-12-28 17-46 45-29" fill="none" stroke="#17356f" stroke-width="10" stroke-linecap="round"/><path d="M226 381v-38M414 381v-38" stroke="#17356f" stroke-width="18" stroke-linecap="round"/><circle cx="305" cy="63" r="44" fill="#ffd600" stroke="#17356f" stroke-width="8"/><path d="M313 36l-23 38h20l-11 28 34-48h-21l14-18z" fill="#17356f"/><path d="M504 82c34-52 73-58 105-55-8 45-35 75-91 79" fill="#7ecb5b"/></svg>